<svg width="508" height="508" viewBox="0 0 508 508" fill="none" xmlns="http://www.w3.org/2000/svg">
<g clip-path="url(#clip0_767_4099)">
<rect width="508" height="508" rx="32" fill="#262626"/>
<rect x="253.5" y="247" width="1" height="152" fill="#6D6D6D"/>
<rect x="253.5" y="142" width="1" height="95" fill="#6D6D6D"/>
<circle opacity="0.03" cx="254" cy="411" r="283" fill="white"/>
<circle opacity="0.03" cx="254" cy="467" r="283" fill="white"/>
<circle opacity="0.03" cx="254" cy="523" r="283" fill="white"/>
<circle opacity="0.03" cx="254" cy="579" r="283" fill="white"/>
<circle opacity="0.03" cx="254" cy="635" r="283" fill="white"/>
<rect x="214" y="396" width="80" height="80" rx="40" fill="#262626"/>
<rect x="226" y="408" width="56" height="56" rx="28" fill="white"/>
<path d="M251.5 438L251.5 430M254 430V428M254 440V438M251.5 434H256.5M256.5 434C257.328 434 258 434.672 258 435.5V436.5C258 437.328 257.328 438 256.5 438H250M256.5 434C257.328 434 258 433.328 258 432.5V431.5C258 430.672 257.328 430 256.5 430H250" stroke="#1E1E1E" stroke-width="2.5" stroke-linecap="round" stroke-linejoin="round"/>
<path d="M252.586 448.683L250.039 447.076C249.392 446.668 249.069 446.464 248.71 446.453C248.322 446.44 247.993 446.636 247.294 447.076C246.512 447.57 244.956 448.929 243.949 448.281C243.333 447.884 243.333 446.876 243.333 444.861V430.667C243.333 426.895 243.333 425.01 244.436 423.838C245.538 422.667 247.313 422.667 250.862 422.667H257.137C260.686 422.667 262.461 422.667 263.564 423.838C264.666 425.01 264.666 426.895 264.666 430.667V444.861C264.666 446.876 264.666 447.884 264.05 448.281C263.044 448.929 261.488 447.57 260.705 447.076C260.059 446.668 259.735 446.464 259.376 446.453C258.989 446.44 258.66 446.636 257.961 447.076L255.413 448.683C254.726 449.116 254.382 449.333 254 449.333C253.617 449.333 253.274 449.116 252.586 448.683Z" stroke="#1E1E1E" stroke-width="2.5" stroke-linecap="round" stroke-linejoin="round"/>
<rect x="214" y="88" width="80" height="80" rx="40" fill="#262626"/>
<rect x="226" y="100" width="56" height="56" rx="28" fill="white"/>
<path d="M259.334 130.667C259.334 131.771 260.229 132.667 261.334 132.667C262.439 132.667 263.334 131.771 263.334 130.667C263.334 129.562 262.439 128.667 261.334 128.667C260.229 128.667 259.334 129.562 259.334 130.667Z" stroke="#1E1E1E" stroke-width="2"/>
<path d="M263.201 122.667C263.288 122.236 263.334 121.79 263.334 121.333C263.334 117.651 260.349 114.667 256.667 114.667C252.985 114.667 250.001 117.651 250.001 121.333C250.001 121.79 250.047 122.236 250.134 122.667" stroke="#1E1E1E" stroke-width="2.5"/>
<path d="M247.334 122.658H259.334C263.105 122.658 264.991 122.658 266.162 123.83C267.334 125.002 267.334 126.889 267.334 130.662V133.33C267.334 137.103 267.334 138.989 266.162 140.161C264.991 141.333 263.105 141.333 259.334 141.333H251.334C246.305 141.333 243.791 141.333 242.229 139.771C240.667 138.208 240.667 135.692 240.667 130.662V127.994C240.667 122.963 240.667 120.448 242.229 118.885C243.487 117.627 245.361 117.381 248.667 117.333H251.334" stroke="#1E1E1E" stroke-width="2.5" stroke-linecap="round"/>
<circle cx="254" cy="240" r="12" fill="white"/>
</g>
<defs>
<clipPath id="clip0_767_4099">
<rect width="508" height="508" rx="32" fill="white"/>
</clipPath>
</defs>
</svg>
