<svg width="508" height="508" viewBox="0 0 508 508" fill="none" xmlns="http://www.w3.org/2000/svg">
<rect width="508" height="508" rx="32" fill="#262626"/>
<circle cx="244" cy="244" r="188.5" stroke="white" stroke-opacity="0.1"/>
<circle cx="244" cy="244" r="132.5" stroke="white" stroke-opacity="0.1"/>
<rect x="126" y="55" width="48" height="48" rx="24" fill="white"/>
<path d="M156 83L157.84 84.5858C158.613 85.2525 159 85.5858 159 86C159 86.4142 158.613 86.7475 157.84 87.4142L156 89" stroke="#1E1E1E" stroke-width="2" stroke-linecap="round" stroke-linejoin="round"/>
<path d="M152 83L150.16 84.5858C149.387 85.2525 149 85.5858 149 86C149 86.4142 149.387 86.7475 150.16 87.4142L152 89" stroke="#1E1E1E" stroke-width="2" stroke-linecap="round" stroke-linejoin="round"/>
<path d="M158 80.0032L158 74.8199C158 73.1262 158 72.2793 157.732 71.6029C157.301 70.5155 156.39 69.6578 155.235 69.2523C154.517 69 153.617 69 151.818 69C148.67 69 147.096 69 145.838 69.4415C143.817 70.1512 142.223 71.6522 141.469 73.5551C141 74.7388 141 76.2208 141 79.1848L141 81.731C141 84.8013 141 86.3364 141.848 87.4025C142.091 87.708 142.379 87.9792 142.703 88.2078C143.615 88.8506 144.85 88.9757 147 89" stroke="#1E1E1E" stroke-width="2" stroke-linecap="round" stroke-linejoin="round"/>
<path d="M141 79C141 77.159 142.492 75.6667 144.333 75.6667C144.999 75.6667 145.784 75.7833 146.431 75.6099C147.007 75.4558 147.456 75.0065 147.61 74.4314C147.783 73.784 147.667 72.9991 147.667 72.3333C147.667 70.4924 149.159 69 151 69" stroke="#1E1E1E" stroke-width="2" stroke-linecap="round" stroke-linejoin="round"/>
<rect x="405" y="192" width="48" height="48" rx="24" fill="white"/>
<ellipse cx="428" cy="209" rx="8" ry="3" stroke="#1E1E1E" stroke-width="2"/>
<path d="M423 214.842C423.602 215.023 424.274 215.172 425 215.282" stroke="#1E1E1E" stroke-width="2" stroke-linecap="round"/>
<path d="M420 216C420 217.53 423.054 218.792 427 218.977" stroke="#1E1E1E" stroke-width="2" stroke-linecap="round"/>
<path d="M423 221.842C423.602 222.023 424.274 222.172 425 222.282" stroke="#1E1E1E" stroke-width="2" stroke-linecap="round"/>
<path d="M428 226C423.582 226 420 224.657 420 223V209M436 209V215" stroke="#1E1E1E" stroke-width="2" stroke-linecap="round" stroke-linejoin="round"/>
<path d="M434 224.714V226M434 224.714C432.843 224.714 431.824 224.146 431.226 223.283M434 224.714C435.157 224.714 436.176 224.146 436.774 223.283M434 218.286C435.157 218.286 436.176 218.854 436.774 219.717M434 218.286C432.843 218.286 431.824 218.854 431.226 219.717M434 218.286V217M438 218.929L436.774 219.717M430 224.071L431.226 223.283M430 218.929L431.226 219.717M438 224.071L436.774 223.283M436.774 219.717C437.127 220.227 437.333 220.84 437.333 221.5C437.333 222.16 437.127 222.773 436.774 223.283M431.226 219.717C430.873 220.227 430.667 220.84 430.667 221.5C430.667 222.16 430.873 222.773 431.226 223.283" stroke="#1E1E1E" stroke-width="1.7" stroke-linecap="round"/>
<rect x="191" y="192" width="105" height="105" rx="52.5" fill="white"/>
<path d="M223.525 228.192H217V260H227.578C227.5 251.175 227.506 246.431 228.764 243.016C229.813 240.169 231.73 240.562 231.73 243.016L232.027 260H249.03V242.722C249.03 240.071 251.897 240.071 251.897 242.722V260H269V228.192C258.542 227.389 254.228 228.992 249.03 235.162V228.192C231.137 228.192 225.385 234.851 225.304 254.11H223.525V228.192Z" fill="#262626"/>
<rect x="248" y="404" width="48" height="48" rx="24" fill="white"/>
<path d="M266.578 431.482C265.163 432.324 261.453 434.044 263.713 436.197C264.816 437.248 266.045 438 267.591 438H276.409C277.955 438 279.184 437.248 280.287 436.197C282.547 434.044 278.837 432.324 277.422 431.482C274.105 429.506 269.895 429.506 266.578 431.482Z" stroke="#1E1E1E" stroke-width="2" stroke-linecap="round" stroke-linejoin="round"/>
<path d="M276.5 422.5C276.5 424.985 274.485 427 272 427C269.515 427 267.5 424.985 267.5 422.5C267.5 420.015 269.515 418 272 418C274.485 418 276.5 420.015 276.5 422.5Z" stroke="#1E1E1E" stroke-width="2"/>
<rect x="101" y="269" width="48" height="48" rx="24" fill="white"/>
<path d="M130.5 298.5L135 303" stroke="#1E1E1E" stroke-width="2" stroke-linecap="round" stroke-linejoin="round"/>
<path d="M133 292C133 287.029 128.971 283 124 283C119.029 283 115 287.029 115 292C115 296.971 119.029 301 124 301C128.971 301 133 296.971 133 292Z" stroke="#1E1E1E" stroke-width="2" stroke-linejoin="round"/>
</svg>
