<svg width="104" height="38" viewBox="0 0 104 38" fill="none" xmlns="http://www.w3.org/2000/svg">
<g clip-path="url(#clip0_767_7582)">
<circle cx="85" cy="19" r="16" fill="#2775CA"/>
<path d="M81.6003 28.3333C76.4003 26.4667 73.7336 20.6667 75.667 15.5333C76.667 12.7333 78.867 10.6 81.6003 9.60002C81.867 9.46674 82.0003 9.26674 82.0003 8.9333V8.00002C82.0003 7.7333 81.867 7.5333 81.6003 7.46674C81.5336 7.46674 81.4003 7.46674 81.3336 7.5333C75.0003 9.5333 71.5336 16.2667 73.5336 22.6C74.7336 26.3333 77.6003 29.2 81.3336 30.4C81.6003 30.5333 81.867 30.4 81.9336 30.1333C82.0003 30.0667 82.0003 30 82.0003 29.8667V28.9333C82.0003 28.7333 81.8003 28.4667 81.6003 28.3333ZM88.667 7.5333C88.4003 7.40002 88.1336 7.5333 88.067 7.80002C88.0003 7.86674 88.0003 7.9333 88.0003 8.06674V9.00002C88.0003 9.26674 88.2003 9.5333 88.4003 9.66674C93.6003 11.5333 96.267 17.3333 94.3336 22.4667C93.3336 25.2667 91.1336 27.4 88.4003 28.4C88.1336 28.5333 88.0003 28.7333 88.0003 29.0667V30C88.0003 30.2667 88.1336 30.4667 88.4003 30.5333C88.467 30.5333 88.6003 30.5333 88.667 30.4667C95.0003 28.4667 98.467 21.7333 96.467 15.4C95.267 11.6 92.3336 8.7333 88.667 7.5333Z" fill="white"/>
<path d="M89.4001 21.5333C89.4001 19.2 88.0001 18.4 85.2001 18.0667C83.2001 17.8 82.8001 17.2667 82.8001 16.3333C82.8001 15.3999 83.4668 14.8 84.8001 14.8C86.0001 14.8 86.6668 15.2 87.0001 16.2C87.0668 16.4 87.2668 16.5333 87.4668 16.5333H88.5334C88.8001 16.5333 89.0001 16.3333 89.0001 16.0667V16C88.7334 14.5333 87.5334 13.4 86.0001 13.2667V11.6667C86.0001 11.4 85.8001 11.2 85.4668 11.1333H84.4668C84.2001 11.1333 84.0001 11.3333 83.9334 11.6667V13.2C81.9334 13.4667 80.6668 14.8 80.6668 16.4667C80.6668 18.6667 82.0001 19.5333 84.8001 19.8667C86.6668 20.2 87.2668 20.6 87.2668 21.6667C87.2668 22.7335 86.3334 23.4667 85.0668 23.4667C83.3334 23.4667 82.7334 22.7333 82.5334 21.7333C82.4668 21.4667 82.2668 21.3333 82.0668 21.3333H80.9334C80.6668 21.3333 80.4668 21.5333 80.4668 21.8V21.8667C80.7334 23.5333 81.8001 24.7333 84.0001 25.0667V26.6667C84.0001 26.9333 84.2001 27.1333 84.5334 27.2H85.5334C85.8001 27.2 86.0001 27 86.0668 26.6667V25.0667C88.0668 24.7333 89.4001 23.3333 89.4001 21.5333Z" fill="white"/>
</g>
<rect x="67.5" y="1.5" width="35" height="35" rx="17.5" stroke="#262626" stroke-width="3"/>
<rect x="45.5" y="1.5" width="35" height="35" rx="17.5" stroke="#262626" stroke-width="3"/>
<circle cx="63" cy="19" r="16" fill="#50AF95"/>
<path d="M63.0785 9.7666C65.5536 9.7666 67.9297 9.7666 70.4048 9.7666C70.6028 9.7666 70.7018 9.86687 70.7018 9.96714C72.0879 13.0756 73.4739 16.0839 74.959 19.0921C75.058 19.1924 74.959 19.2926 74.86 19.3929C73.1769 21.0976 71.4938 22.8022 69.7118 24.5069C67.5337 26.6127 65.2566 28.8187 63.0785 30.9244C62.8805 31.0247 62.8805 31.0247 62.7815 30.9244C60.6034 28.8187 58.4253 26.7129 56.2472 24.5069C54.5641 22.8022 52.7821 21.0976 51.099 19.3929C51 19.2926 51 19.1924 51 19.0921C51.693 17.4877 52.4851 15.9836 53.1781 14.3792C53.8711 12.8751 54.5641 11.4713 55.2572 9.96714C55.3562 9.76659 55.4552 9.66632 55.7522 9.66632C58.2273 9.76659 60.6034 9.66632 63.0785 9.7666ZM63.1775 12.474C61.3954 12.474 59.5144 12.474 57.7323 12.474C57.6333 12.474 57.6333 12.474 57.5343 12.474C57.4353 12.474 57.4353 12.474 57.4353 12.5743C57.4353 13.4767 57.4353 14.3792 57.3363 15.3819C57.3363 15.4822 57.3363 15.4822 57.4353 15.4822C57.7323 15.4822 58.0293 15.4822 58.3263 15.4822C59.3163 15.4822 60.3064 15.4822 61.2964 15.4822C61.3954 15.4822 61.3954 15.4822 61.4944 15.4822C61.5934 15.4822 61.5934 15.5825 61.5934 15.6828C61.5934 16.0839 61.5934 16.5852 61.5934 16.9863C61.5934 17.0866 61.5934 17.0866 61.4944 17.1869C60.8014 17.2872 60.1084 17.2872 59.4153 17.3874C58.5243 17.4877 57.6333 17.6883 56.8412 17.9891C56.4452 18.0894 56.1482 18.2899 55.8512 18.4904C55.5542 18.7913 55.5542 19.1924 55.8512 19.3929C56.0492 19.5935 56.2472 19.6937 56.4452 19.794C57.1383 20.0948 57.8313 20.1951 58.5243 20.3957C59.5144 20.5962 60.5044 20.6965 61.4944 20.7968C61.6924 20.7968 61.6924 20.7968 61.6924 20.9973C61.6924 22.8022 61.6924 24.7074 61.6924 26.5124C61.6924 26.7129 61.6924 26.7129 61.8905 26.7129C62.7815 26.7129 63.7715 26.7129 64.6626 26.7129C64.9596 26.7129 64.9596 26.7129 64.9596 26.4121C64.9596 24.908 64.9596 23.5042 64.9596 22C64.9596 21.5989 64.9596 21.1979 64.9596 20.7968C64.9596 20.5962 65.0586 20.5962 65.1576 20.5962C66.1476 20.5962 67.0387 20.4959 68.0287 20.2954C68.8207 20.1951 69.5138 19.9946 70.2068 19.6937C70.4048 19.5935 70.6028 19.3929 70.8008 19.2926C70.9988 19.0921 70.9988 18.8915 70.8008 18.691C70.6028 18.5907 70.5038 18.3902 70.3058 18.2899C69.1177 17.588 67.7317 17.2872 66.3456 17.1869C65.9496 17.1869 65.5536 17.1869 65.1576 17.0866C65.0586 17.0866 65.0586 17.0866 65.0586 16.8861C65.0586 16.485 65.0586 15.9836 65.0586 15.5825C65.0586 15.4822 65.0586 15.3819 65.2566 15.3819C65.5536 15.3819 65.8506 15.3819 66.1476 15.3819C67.1377 15.3819 68.0287 15.3819 69.0187 15.3819C69.2168 15.3819 69.2168 15.2817 69.2168 15.1814C69.2168 15.0811 69.2168 15.0811 69.2168 14.9809C69.2168 14.1787 69.2168 13.3765 69.2168 12.474C69.2168 12.2734 69.2168 12.2734 69.0187 12.2734C66.8407 12.474 64.9596 12.474 63.1775 12.474Z" fill="white"/>
<path d="M62.6819 20.0948C61.9889 20.0948 61.3949 20.0948 60.7019 19.9945C59.6128 19.8943 58.4248 19.794 57.3357 19.3929C57.1377 19.2926 56.9397 19.1923 56.6427 19.0921C56.3457 18.8915 56.3457 18.691 56.6427 18.5907C57.0387 18.3902 57.4347 18.2899 57.8307 18.1896C58.6228 17.9891 59.4148 17.8888 60.3058 17.7885C60.6028 17.7885 60.9989 17.6882 61.2959 17.6882C61.3949 17.6882 61.4939 17.6882 61.4939 17.8888C61.4939 18.4904 61.4939 18.9918 61.4939 19.5934C61.4939 19.794 61.5929 19.794 61.6919 19.794C62.4839 19.794 63.276 19.794 63.969 19.794C64.167 19.794 64.365 19.794 64.563 19.794C64.761 19.794 64.761 19.794 64.761 19.5934C64.761 19.0921 64.761 18.5907 64.761 18.0893C64.761 17.7885 64.761 17.7885 65.058 17.7885C66.3451 17.8888 67.6321 17.9891 68.9192 18.3902C69.1172 18.4904 69.4142 18.5907 69.6122 18.691C69.8102 18.7912 69.8102 18.9918 69.6122 19.0921C69.2162 19.3929 68.8202 19.4932 68.3252 19.5934C67.3351 19.794 66.3451 19.9945 65.355 19.9945C64.563 19.9945 63.573 20.0948 62.6819 20.0948Z" fill="white"/>
<g clip-path="url(#clip1_767_7582)">
<path fill-rule="evenodd" clip-rule="evenodd" d="M41 3C49.8372 3 57 10.1628 57 19C57 27.8372 49.8372 35 41 35C32.1628 35 25 27.8372 25 19C25 10.1628 32.1628 3 41 3Z" fill="#F0B90B"/>
<path d="M33.7938 19L33.8053 23.2308L37.4002 25.3461V27.8231L31.7015 24.4808V17.7628L33.7938 19ZM33.7938 14.7692V17.2346L31.7002 15.9961V13.5308L33.7938 12.2923L35.8976 13.5308L33.7938 14.7692ZM38.9015 13.5308L40.9951 12.2923L43.0989 13.5308L40.9951 14.7692L38.9015 13.5308Z" fill="white"/>
<path d="M35.3066 22.3538V19.8769L37.4002 21.1154V23.5808L35.3066 22.3538ZM38.9015 26.2333L40.9951 27.4718L43.0989 26.2333V28.6987L40.9951 29.9372L38.9015 28.6987V26.2333ZM46.1015 13.5308L48.1951 12.2923L50.2989 13.5308V15.9961L48.1951 17.2346V14.7692L46.1015 13.5308ZM48.1951 23.2308L48.2066 19L50.3002 17.7615V24.4795L44.6015 27.8218V25.3449L48.1951 23.2308Z" fill="white"/>
<path d="M46.6942 22.3539L44.6006 23.5808V21.1154L46.6942 19.877V22.3539Z" fill="white"/>
<path d="M46.6938 15.6461L46.7054 18.1231L43.1002 20.2384V24.4795L41.0066 25.7064L38.913 24.4795V20.2384L35.3079 18.1231V15.6461L37.4105 14.4077L40.9938 16.5333L44.5989 14.4077L46.7028 15.6461H46.6938ZM35.3066 11.4167L40.9951 8.06281L46.6938 11.4167L44.6002 12.6551L40.9951 10.5295L37.4002 12.6551L35.3066 11.4167Z" fill="white"/>
</g>
<rect x="23.5" y="1.5" width="35" height="35" rx="17.5" stroke="#262626" stroke-width="3"/>
<rect x="1.5" y="1.5" width="35" height="35" rx="17.5" stroke="#262626" stroke-width="3"/>
<circle cx="19" cy="19" r="16" fill="white"/>
<path d="M18.9981 7L18.8418 7.51639V22.5007L18.9981 22.6524L26.1539 18.541L18.9981 7Z" fill="#343434"/>
<path d="M18.9985 7L11.8428 18.541L18.9985 22.6524V15.3795V7Z" fill="#8C8C8C"/>
<path d="M18.9982 23.9694L18.9102 24.0738V29.4115L18.9982 29.6616L26.1583 19.86L18.9982 23.9694Z" fill="#3C3C3B"/>
<path d="M18.9985 29.6615V23.9693L11.8428 19.8599L18.9985 29.6615Z" fill="#8C8C8C"/>
<path d="M18.998 22.6524L26.1537 18.5411L18.998 15.3796V22.6524Z" fill="#141414"/>
<path d="M11.8428 18.5409L18.9984 22.6524V15.3795L11.8428 18.5409Z" fill="#393939"/>
<defs>
<clipPath id="clip0_767_7582">
<rect x="69" y="3" width="32" height="32" rx="16" fill="white"/>
</clipPath>
<clipPath id="clip1_767_7582">
<rect x="25" y="3" width="32" height="32" rx="16" fill="white"/>
</clipPath>
</defs>
</svg>
