<svg width="32" height="33" viewBox="0 0 32 33" fill="none" xmlns="http://www.w3.org/2000/svg">
<rect y="0.5" width="32" height="32" rx="16" fill="#0C7780"/>
<path d="M16 20.667C14.6053 20.667 13.3914 21.7212 12.7647 23.2763C12.4653 24.0191 12.8949 24.8337 13.4656 24.8337H18.5343C19.1051 24.8337 19.5346 24.0191 19.2352 23.2763C18.6085 21.7212 17.3947 20.667 16 20.667Z" stroke="white" stroke-linecap="round"/>
<path d="M21.4167 10.667H22.4186C23.4193 10.667 23.9196 10.667 24.1807 10.9815C24.4417 11.2959 24.3332 11.7679 24.1161 12.712L23.7905 14.1279C23.3008 16.2575 21.5091 17.841 19.3334 18.167" stroke="white" stroke-linecap="round" stroke-linejoin="round"/>
<path d="M10.5833 10.667H9.58145C8.58073 10.667 8.08037 10.667 7.81933 10.9815C7.55828 11.2959 7.66683 11.7679 7.88391 12.712L8.20952 14.1279C8.69925 16.2575 10.4909 17.841 12.6666 18.167" stroke="white" stroke-linecap="round" stroke-linejoin="round"/>
<path d="M16 20.667C18.5174 20.667 20.6375 16.7819 21.2748 11.4927C21.4511 10.03 21.5392 9.2986 21.0724 8.7328C20.6056 8.16699 19.8519 8.16699 18.3446 8.16699H13.6555C12.1482 8.16699 11.3945 8.16699 10.9277 8.7328C10.4609 9.2986 10.549 10.03 10.7253 11.4927C11.3625 16.7819 13.4827 20.667 16 20.667Z" stroke="white" stroke-linecap="round"/>
</svg>
