<svg width="32" height="33" viewBox="0 0 32 33" fill="none" xmlns="http://www.w3.org/2000/svg">
<rect y="0.5" width="32" height="32" rx="16" fill="#0C7780"/>
<path d="M8.91663 21.5C8.91663 20.3215 8.91663 19.7322 9.28274 19.3661C9.64886 19 10.2381 19 11.4166 19H11.8333C12.619 19 13.0118 19 13.2559 19.2441C13.5 19.4882 13.5 19.881 13.5 20.6667V24.8333H8.91663V21.5Z" stroke="white" stroke-linecap="round" stroke-linejoin="round"/>
<path d="M18.5 22.3337C18.5 21.548 18.5 21.1551 18.7441 20.9111C18.9882 20.667 19.381 20.667 20.1667 20.667H20.5833C21.7618 20.667 22.3511 20.667 22.7172 21.0331C23.0833 21.3992 23.0833 21.9885 23.0833 23.167V24.8337H18.5V22.3337Z" stroke="white" stroke-linecap="round" stroke-linejoin="round"/>
<path d="M7.66663 24.833H24.3333" stroke="white" stroke-linecap="round" stroke-linejoin="round"/>
<path d="M13.5 19.833C13.5 18.6545 13.5 18.0652 13.8661 17.6991C14.2322 17.333 14.8215 17.333 16 17.333C17.1785 17.333 17.7678 17.333 18.1339 17.6991C18.5 18.0652 18.5 18.6545 18.5 19.833V24.833H13.5V19.833Z" stroke="white" stroke-linecap="round" stroke-linejoin="round"/>
<path d="M16.5758 8.64838L17.1624 9.83128C17.2424 9.99595 17.4557 10.1539 17.6357 10.1841L18.6989 10.3622C19.3789 10.4765 19.5388 10.9739 19.0489 11.4645L18.2223 12.2979C18.0823 12.439 18.0057 12.7112 18.049 12.9061L18.2856 13.9378C18.4723 14.7544 18.0423 15.0703 17.3258 14.6435L16.3292 14.0487C16.1492 13.9412 15.8526 13.9412 15.6693 14.0487L14.6727 14.6435C13.9595 15.0703 13.5262 14.7511 13.7128 13.9378L13.9495 12.9061C13.9928 12.7112 13.9161 12.439 13.7761 12.2979L12.9496 11.4645C12.463 10.9739 12.6196 10.4765 13.2995 10.3622L14.3627 10.1841C14.5394 10.1539 14.7527 9.99595 14.8327 9.83128L15.4193 8.64838C15.7393 8.00653 16.2592 8.00653 16.5758 8.64838Z" stroke="white" stroke-linecap="round" stroke-linejoin="round"/>
</svg>
