<svg width="32" height="33" viewBox="0 0 32 33" fill="none" xmlns="http://www.w3.org/2000/svg">
<rect y="0.5" width="32" height="32" rx="16" fill="#0C7780"/>
<path d="M14.6447 9.19952C15.0981 8.6348 15.3248 8.35244 15.5953 8.24472C15.8555 8.14108 16.1446 8.14108 16.4048 8.24472C16.6753 8.35244 16.902 8.6348 17.3554 9.19952C17.6079 9.51401 17.7341 9.67125 17.8918 9.77048C18.0444 9.86654 18.2178 9.9235 18.3969 9.93646C18.582 9.94985 18.7776 9.8969 19.1688 9.79098C19.8571 9.60466 20.2013 9.5115 20.4768 9.58011C20.7588 9.65035 21.0024 9.83015 21.155 10.0808C21.3041 10.3256 21.3223 10.6816 21.3588 11.3935C21.3791 11.7913 21.3893 11.9903 21.4564 12.1619C21.5254 12.3384 21.6374 12.4943 21.782 12.6151C21.9224 12.7324 22.1075 12.8037 22.4777 12.9464C23.136 13.2002 23.4651 13.327 23.6483 13.5429C23.8424 13.7714 23.9377 14.0695 23.9128 14.3701C23.8894 14.654 23.6981 14.95 23.3155 15.542C23.1022 15.8721 22.9956 16.0371 22.9496 16.2137C22.9008 16.4016 22.9008 16.5991 22.9496 16.7869C22.9956 16.9636 23.1022 17.1286 23.3155 17.4586C23.6981 18.0507 23.8894 18.3467 23.9128 18.6306C23.9377 18.9311 23.8424 19.2292 23.6483 19.4577C23.4651 19.6736 23.136 19.8005 22.4777 20.0542C22.1075 20.1969 21.9224 20.2683 21.782 20.3856C21.6374 20.5063 21.5254 20.6622 21.4564 20.8388C21.3893 21.0104 21.3791 21.2093 21.3588 21.6072C21.3223 22.3191 21.3041 22.675 21.155 22.9198C21.0024 23.1705 20.7588 23.3503 20.4768 23.4205C20.2013 23.4892 19.8571 23.396 19.1688 23.2097C18.7776 23.1038 18.582 23.0508 18.3969 23.0642C18.2178 23.0772 18.0444 23.1341 17.8918 23.2302C17.7341 23.3294 17.6079 23.4866 17.3554 23.8011C16.902 24.3658 16.6753 24.6482 16.4048 24.7559C16.1446 24.8596 15.8555 24.8596 15.5953 24.7559C15.3248 24.6482 15.0981 24.3659 14.6447 23.8011C14.3922 23.4866 14.2659 23.3294 14.1083 23.2302C13.9557 23.1341 13.7823 23.0772 13.6032 23.0642C13.4181 23.0508 13.2225 23.1038 12.8312 23.2097C12.1429 23.396 11.7988 23.4892 11.5233 23.4205C11.2413 23.3503 10.9977 23.1705 10.8451 22.9199C10.696 22.675 10.6778 22.3191 10.6413 21.6072C10.621 21.2093 10.6108 21.0104 10.5437 20.8388C10.4747 20.6622 10.3627 20.5063 10.2181 20.3856C10.0776 20.2683 9.89255 20.1969 9.52235 20.0542C8.86413 19.8005 8.53501 19.6736 8.35174 19.4577C8.15772 19.2292 8.06241 18.9311 8.08725 18.6306C8.11072 18.3467 8.30201 18.0507 8.68461 17.4586C8.89788 17.1286 9.00452 16.9636 9.05046 16.7869C9.0993 16.5991 9.0993 16.4016 9.05046 16.2137C9.00452 16.0371 8.89788 15.8721 8.68461 15.542C8.30201 14.95 8.11072 14.654 8.08725 14.3701C8.06241 14.0695 8.15772 13.7714 8.35174 13.5429C8.53501 13.327 8.86413 13.2002 9.52235 12.9464C9.89255 12.8037 10.0776 12.7324 10.2181 12.6151C10.3627 12.4943 10.4747 12.3384 10.5437 12.1619C10.6108 11.9903 10.621 11.7913 10.6413 11.3935C10.6778 10.6816 10.696 10.3256 10.8451 10.0808C10.9977 9.83015 11.2413 9.65035 11.5233 9.58011C11.7988 9.5115 12.1429 9.60466 12.8312 9.79098C13.2225 9.8969 13.4181 9.94985 13.6032 9.93646C13.7823 9.9235 13.9557 9.86654 14.1083 9.77048C14.2659 9.67125 14.3922 9.51401 14.6447 9.19952Z" stroke="white" stroke-linejoin="round"/>
<path d="M13.5 17.6108C13.5 17.6108 14.2292 17.6108 14.9583 18.9997C14.9583 18.9997 17.2745 15.5275 19.3333 14.833" stroke="white" stroke-linecap="round" stroke-linejoin="round"/>
</svg>
