<svg width="22" height="23" viewBox="0 0 22 23" fill="none" xmlns="http://www.w3.org/2000/svg">
<path d="M8 14.5C8 11.6716 8 10.2574 8.87868 9.37868C9.75736 8.5 11.1716 8.5 14 8.5L15 8.5C17.8284 8.5 19.2426 8.5 20.1213 9.37868C21 10.2574 21 11.6716 21 14.5V15.5C21 18.3284 21 19.7426 20.1213 20.6213C19.2426 21.5 17.8284 21.5 15 21.5H14C11.1716 21.5 9.75736 21.5 8.87868 20.6213C8 19.7426 8 18.3284 8 15.5L8 14.5Z" stroke="#B0B0B0" stroke-width="1.5" stroke-linecap="round" stroke-linejoin="round"/>
<path d="M15.9999 8.5C15.9975 5.54291 15.9528 4.01121 15.092 2.96243C14.9258 2.75989 14.7401 2.57418 14.5376 2.40796C13.4312 1.5 11.7875 1.5 8.5 1.5C5.21252 1.5 3.56878 1.5 2.46243 2.40796C2.25989 2.57417 2.07418 2.75989 1.90796 2.96243C1 4.06878 1 5.71252 1 9C1 12.2875 1 13.9312 1.90796 15.0376C2.07417 15.2401 2.25989 15.4258 2.46243 15.592C3.51121 16.4528 5.04291 16.4975 8 16.4999" stroke="#B0B0B0" stroke-width="1.5" stroke-linecap="round" stroke-linejoin="round"/>
</svg>
