<svg width="132" height="32" viewBox="0 0 132 32" fill="none" xmlns="http://www.w3.org/2000/svg">
<path d="M6.15759 0.818639H0V30.6634H9.98275C9.90876 22.383 9.91475 17.9317 11.1023 14.7278C12.0924 12.0565 13.9012 12.425 13.9012 14.7278L14.1811 30.6634H30.2281V14.4515C30.2281 11.9644 32.9338 11.9644 32.9338 14.4515V30.6634H49.0741V0.818639C39.2048 0.0655613 35.1335 1.56938 30.2281 7.35874V0.818639C13.3414 0.818684 7.91343 7.06675 7.83693 25.1366H6.15759V0.818639Z" fill="#1E1E1E"/>
<path d="M59.4164 13.8616V-5.34058e-05H61.3609L66.2618 9.68329L71.1826 -5.34058e-05H73.1469V13.8616H71.4802V2.9703L66.8967 11.921H65.6467L61.0831 3.00991V13.8616H59.4164Z" fill="#1E1E1E"/>
<path d="M79.3079 13.8626C78.3819 13.8626 77.5486 13.6514 76.8078 13.2289C76.0671 12.7933 75.485 12.186 75.0617 11.4071C74.6384 10.615 74.4268 9.69752 74.4268 8.65461C74.4268 7.58528 74.6384 6.66116 75.0617 5.88228C75.4983 5.09018 76.0869 4.48291 76.8277 4.06046C77.5816 3.62481 78.4216 3.40698 79.3476 3.40698C80.3 3.40698 81.1399 3.62481 81.8675 4.06046C82.6082 4.48291 83.1903 5.09018 83.6135 5.88228C84.0501 6.66116 84.2683 7.57868 84.2683 8.63481C84.2683 9.69094 84.0501 10.615 83.6135 11.4071C83.177 12.186 82.5884 12.7933 81.8476 13.2289C81.1069 13.6514 80.2603 13.8626 79.3079 13.8626ZM79.3277 12.4368C79.8965 12.4368 80.4256 12.2982 80.9151 12.021C81.4045 11.7306 81.8013 11.3015 82.1056 10.7338C82.4098 10.1662 82.5619 9.4665 82.5619 8.63481C82.5619 7.7899 82.4098 7.09022 82.1056 6.53576C81.8146 5.96808 81.4243 5.54564 80.9349 5.2684C80.4587 4.97797 79.9296 4.83275 79.3476 4.83275C78.792 4.83275 78.2629 4.97797 77.7602 5.2684C77.2708 5.54564 76.874 5.96808 76.5697 6.53576C76.2787 7.09022 76.1332 7.7899 76.1332 8.63481C76.1332 9.4665 76.2787 10.1662 76.5697 10.7338C76.874 11.3015 77.2642 11.7306 77.7404 12.021C78.2298 12.2982 78.7589 12.4368 79.3277 12.4368Z" fill="#1E1E1E"/>
<path d="M100.783 13.8626C99.8566 13.8626 99.0232 13.6514 98.2825 13.2289C97.5417 12.7933 96.9597 12.186 96.5364 11.4071C96.1131 10.615 95.9015 9.69752 95.9015 8.65461C95.9015 7.58528 96.1131 6.66116 96.5364 5.88228C96.9729 5.09018 97.5616 4.48291 98.3023 4.06046C99.0563 3.62481 99.8963 3.40698 100.822 3.40698C101.775 3.40698 102.615 3.62481 103.342 4.06046C104.083 4.48291 104.665 5.09018 105.088 5.88228C105.525 6.66116 105.743 7.57868 105.743 8.63481C105.743 9.69094 105.525 10.615 105.088 11.4071C104.652 12.186 104.063 12.7933 103.322 13.2289C102.582 13.6514 101.735 13.8626 100.783 13.8626ZM100.802 12.4368C101.371 12.4368 101.9 12.2982 102.39 12.021C102.879 11.7306 103.276 11.3015 103.58 10.7338C103.884 10.1662 104.037 9.4665 104.037 8.63481C104.037 7.7899 103.884 7.09022 103.58 6.53576C103.289 5.96808 102.899 5.54564 102.41 5.2684C101.933 4.97797 101.404 4.83275 100.822 4.83275C100.267 4.83275 99.7375 4.97797 99.2349 5.2684C98.7454 5.54564 98.3486 5.96808 98.0444 6.53576C97.7534 7.09022 97.6079 7.7899 97.6079 8.63481C97.6079 9.4665 97.7534 10.1662 98.0444 10.7338C98.3486 11.3015 98.7388 11.7306 99.215 12.021C99.7045 12.2982 100.234 12.4368 100.802 12.4368Z" fill="#1E1E1E"/>
<path d="M85.6603 13.838V3.85758H87.1683L87.2476 5.60018C87.5651 4.97971 88.0148 4.49785 88.5969 4.15461C89.1921 3.79817 89.8668 3.61995 90.6207 3.61995C91.4012 3.61995 92.0758 3.77837 92.6446 4.09521C93.2134 4.39884 93.6565 4.8675 93.974 5.50117C94.2915 6.12165 94.4502 6.91373 94.4502 7.87744V13.838H92.7835V8.05568C92.7835 7.05236 92.5586 6.29987 92.1089 5.79822C91.6723 5.29655 91.0506 5.04572 90.2437 5.04572C89.6882 5.04572 89.1921 5.18433 88.7556 5.46157C88.3191 5.7256 87.9685 6.11505 87.704 6.6299C87.4527 7.13157 87.327 7.75864 87.327 8.51114V13.838H85.6603Z" fill="#1E1E1E"/>
<path d="M81.7931 31.1109C80.8671 31.1109 80.0338 30.8997 79.293 30.4772C78.5522 30.0416 77.9702 29.4343 77.5469 28.6554C77.1236 27.8633 76.912 26.9458 76.912 25.9029C76.912 24.8336 77.1236 23.9095 77.5469 23.1306C77.9834 22.3385 78.5721 21.7312 79.3128 21.3088C80.0668 20.8731 80.9068 20.6553 81.8327 20.6553C82.7851 20.6553 83.6251 20.8731 84.3526 21.3088C85.0934 21.7312 85.6754 22.3385 86.0987 23.1306C86.5352 23.9095 86.7535 24.827 86.7535 25.8831C86.7535 26.9392 86.5352 27.8633 86.0987 28.6554C85.6622 29.4343 85.0736 30.0416 84.3328 30.4772C83.5921 30.8997 82.7455 31.1109 81.7931 31.1109ZM81.8129 29.6851C82.3817 29.6851 82.9108 29.5465 83.4002 29.2693C83.8897 28.9789 84.2865 28.5498 84.5908 27.9821C84.895 27.4145 85.0471 26.7148 85.0471 25.8831C85.0471 25.0382 84.895 24.3385 84.5908 23.784C84.2997 23.2164 83.9095 22.7939 83.4201 22.5167C82.9439 22.2263 82.4148 22.081 81.8327 22.081C81.2772 22.081 80.7481 22.2263 80.2454 22.5167C79.756 22.7939 79.3591 23.2164 79.0549 23.784C78.7639 24.3385 78.6184 25.0382 78.6184 25.8831C78.6184 26.7148 78.7639 27.4145 79.0549 27.9821C79.3591 28.5498 79.7494 28.9789 80.2255 29.2693C80.715 29.5465 81.2441 29.6851 81.8129 29.6851Z" fill="#1E1E1E"/>
<path d="M100.782 31.1109C99.8563 31.1109 99.023 30.8997 98.2822 30.4772C97.5415 30.0416 96.9594 29.4343 96.5362 28.6554C96.1129 27.8633 95.9012 26.9458 95.9012 25.9029C95.9012 24.8336 96.1129 23.9095 96.5362 23.1306C96.9727 22.3385 97.5613 21.7312 98.3021 21.3088C99.0561 20.8731 99.896 20.6553 100.822 20.6553C101.774 20.6553 102.614 20.8731 103.342 21.3088C104.083 21.7312 104.665 22.3385 105.088 23.1306C105.524 23.9095 105.743 24.827 105.743 25.8831C105.743 26.9392 105.524 27.8633 105.088 28.6554C104.651 29.4343 104.063 30.0416 103.322 30.4772C102.581 30.8997 101.735 31.1109 100.782 31.1109ZM100.802 29.6851C101.371 29.6851 101.9 29.5465 102.389 29.2693C102.879 28.9789 103.276 28.5498 103.58 27.9821C103.884 27.4145 104.036 26.7148 104.036 25.8831C104.036 25.0382 103.884 24.3385 103.58 23.784C103.289 23.2164 102.899 22.7939 102.409 22.5167C101.933 22.2263 101.404 22.081 100.822 22.081C100.266 22.081 99.7373 22.2263 99.2346 22.5167C98.7452 22.7939 98.3484 23.2164 98.0441 23.784C97.7531 24.3385 97.6076 25.0382 97.6076 25.8831C97.6076 26.7148 97.7531 27.4145 98.0441 27.9821C98.3484 28.5498 98.7386 28.9789 99.2148 29.2693C99.7042 29.5465 100.233 29.6851 100.802 29.6851Z" fill="#1E1E1E"/>
<path d="M122.973 31.1109C122.047 31.1109 121.213 30.8997 120.472 30.4772C119.732 30.0416 119.15 29.4343 118.726 28.6554C118.303 27.8633 118.091 26.9458 118.091 25.9029C118.091 24.8336 118.303 23.9095 118.726 23.1306C119.163 22.3385 119.752 21.7312 120.492 21.3088C121.246 20.8731 122.086 20.6553 123.012 20.6553C123.965 20.6553 124.805 20.8731 125.532 21.3088C126.273 21.7312 126.855 22.3385 127.278 23.1306C127.715 23.9095 127.933 24.827 127.933 25.8831C127.933 26.9392 127.715 27.8633 127.278 28.6554C126.842 29.4343 126.253 30.0416 125.512 30.4772C124.772 30.8997 123.925 31.1109 122.973 31.1109ZM122.992 29.6851C123.561 29.6851 124.09 29.5465 124.58 29.2693C125.069 28.9789 125.466 28.5498 125.77 27.9821C126.074 27.4145 126.227 26.7148 126.227 25.8831C126.227 25.0382 126.074 24.3385 125.77 23.784C125.479 23.2164 125.089 22.7939 124.6 22.5167C124.123 22.2263 123.594 22.081 123.012 22.081C122.457 22.081 121.928 22.2263 121.425 22.5167C120.935 22.7939 120.539 23.2164 120.234 23.784C119.943 24.3385 119.798 25.0382 119.798 25.8831C119.798 26.7148 119.943 27.4145 120.234 27.9821C120.539 28.5498 120.929 28.9789 121.405 29.2693C121.894 29.5465 122.424 29.6851 122.992 29.6851Z" fill="#1E1E1E"/>
<path d="M59.4161 31.1099V17.2482H63.94C65.0379 17.2482 65.9374 17.4331 66.6385 17.8027C67.3528 18.1592 67.8753 18.641 68.206 19.2483C68.5499 19.8556 68.7219 20.5486 68.7219 21.3275C68.7219 22.08 68.5499 22.7665 68.206 23.387C67.8753 23.9942 67.3594 24.4827 66.6584 24.8523C65.9573 25.222 65.0512 25.4068 63.94 25.4068H61.0828V31.1099H59.4161ZM61.0828 24.0009H63.9202C65.0313 24.0009 65.825 23.7566 66.3012 23.2682C66.7774 22.7797 67.0155 22.1328 67.0155 21.3275C67.0155 20.4694 66.7774 19.8093 66.3012 19.3473C65.825 18.872 65.0313 18.6344 63.9202 18.6344H61.0828V24.0009Z" fill="#1E1E1E"/>
<path d="M70.0842 31.0863V21.1059H71.5922L71.7112 23.0069C71.9361 22.558 72.2205 22.1752 72.5644 21.8584C72.9216 21.5415 73.3449 21.2973 73.8343 21.1257C74.337 20.9541 74.9057 20.8682 75.5407 20.8682V22.6108H74.9256C74.5023 22.6108 74.0988 22.6703 73.7152 22.7891C73.3316 22.8947 72.9877 23.0729 72.6835 23.3237C72.3925 23.5746 72.161 23.9178 71.989 24.3535C71.8303 24.7759 71.7509 25.304 71.7509 25.9376V31.0863H70.0842Z" fill="#1E1E1E"/>
<path d="M92.8632 31.1351C92.268 31.1351 91.7521 31.0427 91.3156 30.8578C90.879 30.673 90.5417 30.3628 90.3036 29.9271C90.0788 29.4783 89.9663 28.8776 89.9663 28.1251V22.5607H88.2202V21.1547H89.9663L90.1846 18.7388H91.633V21.1547H94.5299V22.5607H91.633V28.1251C91.633 28.7456 91.7587 29.168 92.01 29.3925C92.2613 29.6037 92.7045 29.7093 93.3394 29.7093H94.4109V31.1351H92.8632Z" fill="#1E1E1E"/>
<path d="M112.131 31.1109C111.191 31.1109 110.345 30.8931 109.591 30.4574C108.85 30.0218 108.268 29.4145 107.845 28.6356C107.421 27.8435 107.21 26.9326 107.21 25.9029C107.21 24.8468 107.421 23.9293 107.845 23.1504C108.268 22.3715 108.85 21.7642 109.591 21.3286C110.345 20.8797 111.191 20.6553 112.131 20.6553C113.321 20.6553 114.313 20.9655 115.107 21.586C115.901 22.1933 116.403 23.0118 116.615 24.0415H114.908C114.776 23.421 114.452 22.9391 113.936 22.5959C113.42 22.2527 112.812 22.081 112.111 22.081C111.542 22.081 111.013 22.2263 110.523 22.5167C110.034 22.7939 109.644 23.2164 109.353 23.784C109.062 24.3517 108.916 25.0514 108.916 25.8831C108.916 26.5036 109.002 27.058 109.174 27.5465C109.346 28.0217 109.578 28.4178 109.869 28.7346C110.16 29.0515 110.497 29.2957 110.881 29.4673C111.277 29.6257 111.687 29.7049 112.111 29.7049C112.587 29.7049 113.017 29.6323 113.4 29.4871C113.784 29.3287 114.108 29.0977 114.373 28.794C114.637 28.4904 114.816 28.134 114.908 27.7247H116.615C116.403 28.728 115.894 29.5465 115.087 30.1802C114.293 30.8007 113.308 31.1109 112.131 31.1109Z" fill="#1E1E1E"/>
<path d="M129.4 31.08V16.8223H131.067V31.08H129.4Z" fill="#1E1E1E"/>
</svg>
