<svg width="22" height="22" viewBox="0 0 22 22" fill="none" xmlns="http://www.w3.org/2000/svg">
<rect width="22" height="22" rx="4" fill="#0C7780"/>
<g clip-path="url(#clip0_934_8223)">
<path d="M10.9997 14.3333C9.88391 14.3333 8.91281 15.1767 8.41145 16.4208C8.17198 17.015 8.5156 17.6667 8.97219 17.6667H13.0272C13.4837 17.6667 13.8274 17.015 13.5879 16.4208C13.0865 15.1767 12.1154 14.3333 10.9997 14.3333Z" fill="white" stroke="white" stroke-linecap="round"/>
<path d="M15.3337 6.33333H16.1351C16.9357 6.33333 17.336 6.33333 17.5448 6.5849C17.7537 6.83648 17.6668 7.21408 17.4932 7.9693L17.2327 9.10204C16.8409 10.8057 15.4076 12.0725 13.667 12.3333" stroke="white" stroke-linecap="round" stroke-linejoin="round"/>
<path d="M6.66634 6.33333H5.86487C5.06429 6.33333 4.664 6.33333 4.45517 6.5849C4.24633 6.83648 4.33317 7.21408 4.50684 7.9693L4.76733 9.10204C5.1591 10.8057 6.59242 12.0725 8.33301 12.3333" stroke="white" stroke-linecap="round" stroke-linejoin="round"/>
<path d="M11.0003 14.3333C13.0142 14.3333 14.7103 11.2253 15.2202 6.99392C15.3612 5.82372 15.4317 5.23861 15.0582 4.78597C14.6848 4.33333 14.0818 4.33333 12.8759 4.33333H9.12471C7.91882 4.33333 7.31588 4.33333 6.94244 4.78597C6.569 5.23861 6.6395 5.82372 6.78049 6.99392C7.29033 11.2253 8.98648 14.3333 11.0003 14.3333Z" fill="white" stroke="#0C7780" stroke-linecap="round"/>
</g>
<defs>
<clipPath id="clip0_934_8223">
<rect width="16" height="16" fill="white" transform="translate(3 3)"/>
</clipPath>
</defs>
</svg>
